<svg id="Layer_1" data-name="Layer 1" xmlns="http://www.w3.org/2000/svg" viewBox="0 0 375.5 375.5"><defs><style>.cls-1{isolation:isolate;}.cls-2{fill:#fff;}.cls-3{fill:none;stroke:#fff;stroke-miterlimit:10;stroke-width:2px;}</style></defs><title>bbq</title><g class="cls-1"><g class="cls-1"><path class="cls-2" d="M169.92,219.34q0,20.09-13.78,29.55A35,35,0,0,1,136.23,255H121.62V122.23h14.61q26.39,0,26.39,30.88,0,22.58-13.61,32.54Q169.92,196.1,169.92,219.34Zm-37.35-86.82v47.14a4.15,4.15,0,0,0,2.16.5q4.81,0,9.79-4.65,7.8-7.3,7.8-22.41,0-10.46-3.15-14.94-4-5.64-14.11-5.64h-2.49Zm20.75,104.25a25.79,25.79,0,0,0,6.31-17.43q0-14.94-11.45-22.24-7.14-4.81-13.45-4.81a4.15,4.15,0,0,0-2.16.5v52h2.49Q146.35,244.74,153.32,236.77Z" transform="translate(-75.62 -35.1)"/><path class="cls-2" d="M230,219.34q0,20.09-13.78,29.55A35,35,0,0,1,196.32,255H181.71V122.23h14.61q26.39,0,26.39,30.88,0,22.58-13.61,32.54Q230,196.1,230,219.34Zm-37.35-86.82v47.14a4.15,4.15,0,0,0,2.16.5q4.81,0,9.79-4.65,7.8-7.3,7.8-22.41,0-10.46-3.15-14.94-4-5.64-14.11-5.64h-2.49Zm20.75,104.25a25.79,25.79,0,0,0,6.31-17.43q0-14.94-11.45-22.24-7.14-4.81-13.45-4.81a4.15,4.15,0,0,0-2.16.5v52h2.49Q206.44,244.74,213.42,236.77Z" transform="translate(-75.62 -35.1)"/></g><g class="cls-1"><path class="cls-2" d="M301.85,257q-13.2-5-16.8-7.6a20.41,20.41,0,0,1-13.4,4.8q-19.2,0-26-31-3.8-17.2-3.8-49.6t3.8-49.6q6.8-31,26-31t26,31q3.8,17.2,3.8,49.6,0,49.4-9.6,67.2a41.22,41.22,0,0,0,16.2,6.4Zm-47-83.4q0,32,2.6,47.2,13-1,25.4,11,5.8-14.6,5.8-58.2,0-68.4-17-68.4Q254.85,105.23,254.85,173.63Zm16.8,68.6a8,8,0,0,0,4.2-1.2q-8.6-8.4-15-8.6Q264.65,242.23,271.65,242.23Z" transform="translate(-75.62 -35.1)"/></g><g class="cls-1"><path class="cls-2" d="M322.41,199.19V140h9.44v59.2q0,22.88,2.24,34.24,2.88,14.4,10.08,14.4t10.08-14.4q2.24-11.2,2.24-34.24V140h9.44v59.2q0,23.36-2.72,35.52-4.8,21.92-19,21.92-14.08,0-19-21.92Q322.41,222.55,322.41,199.19Z" transform="translate(-75.62 -35.1)"/><path class="cls-2" d="M388.33,148.79v30.56H404v8.8H388.33v58.08h16.8V255H378.89V140h26.24v8.8h-16.8Z" transform="translate(-75.62 -35.1)"/></g></g><g class="cls-1"><path class="cls-2" d="M124.81,276.6v12.08H131v3.48h-6.21v26.5H121v-45.6h10.43v3.53h-6.67Z" transform="translate(-75.62 -35.1)"/><path class="cls-2" d="M135.41,298.2a65,65,0,0,1,1-12.94q1.77-8.15,6.78-8.15t6.78,8.15a65,65,0,0,1,1,12.94,65.49,65.49,0,0,1-1,12.94q-1.77,8.09-6.78,8.09t-6.78-8.09A65.45,65.45,0,0,1,135.41,298.2Zm7.75,17.9q4.45,0,4.45-17.9t-4.45-18q-4.39,0-4.39,18T143.16,316.1Z" transform="translate(-75.62 -35.1)"/><path class="cls-2" d="M155.31,298.2a65,65,0,0,1,1-12.94q1.77-8.15,6.78-8.15t6.78,8.15a65,65,0,0,1,1,12.94,65.49,65.49,0,0,1-1,12.94q-1.77,8.09-6.78,8.09t-6.78-8.09A65.45,65.45,0,0,1,155.31,298.2Zm7.75,17.9q4.45,0,4.45-17.9t-4.45-18q-4.39,0-4.39,18T163.06,316.1Z" transform="translate(-75.62 -35.1)"/><path class="cls-2" d="M188,284.35q1.25,3.93,1.25,13.85T188,312q-2.11,6.67-8.72,6.67h-4.1v-41h4.1Q185.91,277.68,188,284.35Zm-3,25.65q0.85-3.3.85-11.8t-0.85-11.86q-1.48-5.53-6.1-5.53h-0.4v34.71H179Q183.58,315.53,185.06,310Z" transform="translate(-75.62 -35.1)"/><path class="cls-2" d="M209.74,276.6v12.08H216v3.48h-6.21v26.5H206v-45.6h10.43v3.53h-6.67Z" transform="translate(-75.62 -35.1)"/><path class="cls-2" d="M220.34,298.2a65,65,0,0,1,1-12.94q1.77-8.15,6.78-8.15t6.78,8.15a65,65,0,0,1,1,12.94,65.49,65.49,0,0,1-1,12.94q-1.77,8.09-6.78,8.09t-6.78-8.09A65.45,65.45,0,0,1,220.34,298.2Zm7.75,17.9q4.45,0,4.45-17.9t-4.45-18q-4.39,0-4.39,18T228.09,316.1Z" transform="translate(-75.62 -35.1)"/><path class="cls-2" d="M251.12,318.67a178.09,178.09,0,0,1-5.47-19.89l-2.05.68v19.21h-3.36v-41h4.5q8.15,0,8.15,9.58,0,6.9-4.22,10a117.67,117.67,0,0,0,6.21,21.43h-3.76Zm-6.84-23.08a4.45,4.45,0,0,0,3-1.48q2.39-2.22,2.39-6.84a8.57,8.57,0,0,0-1-4.67q-1.2-1.77-4.33-1.77h-0.8v14.59A1.3,1.3,0,0,0,244.28,295.58Z" transform="translate(-75.62 -35.1)"/><path class="cls-2" d="M274.89,276.6v12.08h6.21v3.48h-6.21v23h6.67v3.53H271.13v-45.6h10.43v3.53h-6.67Z" transform="translate(-75.62 -35.1)"/><path class="cls-2" d="M301.28,277.68l-6.16,41h-3.71l-6.16-41h3.36L293.24,313l4.67-35.34h3.36Z" transform="translate(-75.62 -35.1)"/><path class="cls-2" d="M308.86,280.82v10.89h5.59v3.13h-5.59v20.69h6v3.13H305.5v-41h9.35v3.14h-6Z" transform="translate(-75.62 -35.1)"/><path class="cls-2" d="M329.49,318.67A178.09,178.09,0,0,1,324,298.77l-2.05.68v19.21h-3.36v-41h4.5q8.15,0,8.15,9.58,0,6.9-4.22,10a117.67,117.67,0,0,0,6.21,21.43h-3.76Zm-6.84-23.08a4.45,4.45,0,0,0,3-1.48q2.39-2.22,2.39-6.84a8.57,8.57,0,0,0-1-4.67q-1.2-1.77-4.33-1.77H322v14.59A1.3,1.3,0,0,0,322.65,295.58Z" transform="translate(-75.62 -35.1)"/><path class="cls-2" d="M352.81,277.68l-6.1,19.78v21.2h-3.36v-21.2l-6.16-19.78h3.36L345,292l4.45-14.36h3.36Z" transform="translate(-75.62 -35.1)"/><path class="cls-2" d="M356.62,298.2a65,65,0,0,1,1-12.94q1.77-8.15,6.78-8.15t6.78,8.15a65,65,0,0,1,1,12.94,65.49,65.49,0,0,1-1,12.94q-1.77,8.09-6.78,8.09t-6.78-8.09A65.45,65.45,0,0,1,356.62,298.2Zm7.75,17.9q4.45,0,4.45-17.9t-4.45-18q-4.39,0-4.39,18T364.38,316.1Z" transform="translate(-75.62 -35.1)"/><path class="cls-2" d="M391.62,277.68v41h-3.36V299.23l-8.38-15.39v34.83h-3.36v-41h3.36l8.38,15.39V277.68h3.36Z" transform="translate(-75.62 -35.1)"/><path class="cls-2" d="M399.71,280.82v10.89h5.59v3.13h-5.59v20.69h6v3.13h-9.35v-41h9.35v3.14h-6Z" transform="translate(-75.62 -35.1)"/></g><line class="cls-3" x1="46.7" y1="229" x2="328.8" y2="229"/><rect class="cls-3" x="1" y="1" width="373.5" height="373.5"/></svg>